<svg width="16" height="17" viewBox="0 0 16 17" fill="none" xmlns="http://www.w3.org/2000/svg">
<path d="M14.364 5.79295C14.1765 5.60548 13.9222 5.50017 13.657 5.50017C13.3918 5.50017 13.1375 5.60548 12.95 5.79295L8.00001 10.743L3.05001 5.79295C2.86141 5.61079 2.60881 5.51 2.34661 5.51228C2.08442 5.51456 1.8336 5.61972 1.64819 5.80513C1.46279 5.99054 1.35762 6.24135 1.35534 6.50355C1.35306 6.76575 1.45386 7.01835 1.63601 7.20695L7.29301 12.864C7.48054 13.0514 7.73485 13.1567 8.00001 13.1567C8.26518 13.1567 8.51949 13.0514 8.70701 12.864L14.364 7.20695C14.5515 7.01942 14.6568 6.76512 14.6568 6.49995C14.6568 6.23479 14.5515 5.98048 14.364 5.79295Z" fill="#221F1F"/>
</svg>
