<svg width="29" height="29" viewBox="0 0 29 29" fill="none" xmlns="http://www.w3.org/2000/svg">
<path d="M14.5001 12.0832C17.1695 12.0832 19.3334 9.91921 19.3334 7.24984C19.3334 4.58046 17.1695 2.4165 14.5001 2.4165C11.8307 2.4165 9.66675 4.58046 9.66675 7.24984C9.66675 9.91921 11.8307 12.0832 14.5001 12.0832Z" stroke="#221F1F" stroke-width="2"/>
<path d="M24.1643 21.7497C24.1659 21.5515 24.1667 21.3501 24.1667 21.1455C24.1667 18.1428 19.8385 15.708 14.5 15.708C9.16162 15.708 4.83337 18.1428 4.83337 21.1455C4.83337 24.1482 4.83337 26.583 14.5 26.583C17.1958 26.583 19.14 26.3933 20.5417 26.055" stroke="#221F1F" stroke-width="2" stroke-linecap="round"/>
</svg>
