<svg width="29" height="29" viewBox="0 0 29 29" fill="none" xmlns="http://www.w3.org/2000/svg">
<path d="M4.22913 13.2915V16.9165C4.22913 21.4731 4.22913 23.752 5.64529 25.167C7.06146 26.582 9.33917 26.5832 13.8958 26.5832H15.1041C19.6608 26.5832 21.9397 26.5832 23.3546 25.167M24.7708 13.2915V16.9165C24.7708 18.3303 24.7708 19.5241 24.7285 20.5415" stroke="#221F1F" stroke-width="2" stroke-linecap="round"/>
<path d="M11.4792 2.4165H17.5208M11.4792 2.4165L10.6913 10.2912C10.6394 10.8226 10.6993 11.359 10.8671 11.8658C11.0349 12.3727 11.3068 12.8388 11.6656 13.2343C12.0243 13.6297 12.4618 13.9458 12.9499 14.162C13.4381 14.3783 13.9661 14.49 14.5 14.49C15.0339 14.49 15.5619 14.3783 16.0501 14.162C16.5382 13.9458 16.9757 13.6297 17.3344 13.2343C17.6931 12.8388 17.9651 12.3727 18.1329 11.8658C18.3007 11.359 18.3606 10.8226 18.3087 10.2912L17.5208 2.4165M11.4792 2.4165H8.9634C7.86624 2.4165 7.31765 2.4165 6.8464 2.5458C6.35626 2.68023 5.89987 2.91623 5.50685 3.23847C5.11383 3.56072 4.79296 3.96201 4.56507 4.4163M11.4792 2.4165L10.6031 11.1709C10.5569 11.6719 10.4089 12.1582 10.1682 12.6C9.92748 13.0418 9.59913 13.4299 9.20325 13.7404C8.80736 14.0509 8.35227 14.2774 7.86582 14.4059C7.37938 14.5345 6.87182 14.5624 6.37422 14.4879C5.87661 14.4135 5.39944 14.2383 4.9719 13.973C4.54437 13.7078 4.17547 13.358 3.88778 12.9453C3.6001 12.5325 3.39969 12.0653 3.29882 11.5724C3.19795 11.0795 3.19875 10.5712 3.30115 10.0785L3.38332 9.6665M17.5208 2.4165H20.0366C21.1337 2.4165 21.6823 2.4165 22.1536 2.5458C22.6437 2.68023 23.1001 2.91623 23.4931 3.23847C23.8861 3.56072 24.207 3.96201 24.4349 4.4163C24.6536 4.8513 24.7612 5.39021 24.9762 6.46563L25.6988 10.0785C25.8012 10.5712 25.802 11.0795 25.7012 11.5724C25.6003 12.0653 25.3999 12.5325 25.1122 12.9453C24.8245 13.358 24.4556 13.7078 24.0281 13.973C23.6005 14.2383 23.1234 14.4135 22.6258 14.4879C22.1282 14.5624 21.6206 14.5345 21.1342 14.4059C20.6477 14.2774 20.1926 14.0509 19.7967 13.7404C19.4008 13.4299 19.0725 13.0418 18.8318 12.6C18.5911 12.1582 18.4431 11.6719 18.3969 11.1709L17.5208 2.4165ZM11.4792 25.979V22.354C11.4792 21.2242 11.4792 20.6599 11.722 20.2394C11.8811 19.9639 12.1099 19.7351 12.3854 19.576C12.8059 19.3332 13.3702 19.3332 14.5 19.3332C15.6298 19.3332 16.1941 19.3332 16.6146 19.576C16.8901 19.7351 17.1189 19.9639 17.2779 20.2394C17.5208 20.6599 17.5208 21.2242 17.5208 22.354V25.979" stroke="#221F1F" stroke-width="2" stroke-linecap="round"/>
</svg>
