<svg width="29" height="29" viewBox="0 0 29 29" fill="none" xmlns="http://www.w3.org/2000/svg">
<path d="M11.0043 3.23093C12.0911 2.69327 13.2875 2.41452 14.5 2.41651C19.0035 2.41651 22.6563 6.20585 22.6563 10.8809V11.7328C22.6548 12.7496 22.945 13.7456 23.4924 14.6026L24.8313 16.6857C26.0529 18.5888 25.1201 21.1759 22.9946 21.7776C17.4408 23.3505 11.5593 23.3505 6.00543 21.7776C3.87997 21.1759 2.94714 18.5888 4.16876 16.6869L5.5076 14.6026C6.05503 13.7456 6.34522 12.7496 6.34376 11.7328V10.8809C6.34376 9.58314 6.62531 8.35306 7.12918 7.25347M9.06251 22.9582C9.85397 25.0703 11.9891 26.5832 14.5 26.5832C14.7957 26.5832 15.0857 26.563 15.37 26.5228M19.9375 22.9582C19.6102 23.8208 19.0688 24.5859 18.3643 25.1815" stroke="#221F1F" stroke-width="2" stroke-linecap="round"/>
</svg>
