<svg width="29" height="29" viewBox="0 0 29 29" fill="none" xmlns="http://www.w3.org/2000/svg">
<path d="M26.5834 14.5002C26.5834 19.0568 26.5834 21.3357 25.1672 22.7507C23.751 24.1656 21.4733 24.1668 16.9167 24.1668H12.0834C7.52673 24.1668 5.24781 24.1668 3.83285 22.7507C2.4179 21.3345 2.41669 19.0568 2.41669 14.5002C2.41669 9.94354 2.41669 7.66462 3.83285 6.24966C5.24902 4.8347 7.52673 4.8335 12.0834 4.8335H16.9167C21.4733 4.8335 23.7522 4.8335 25.1672 6.24966C25.9574 7.0387 26.3066 8.096 26.4601 9.66683" stroke="#221F1F" stroke-width="2" stroke-linecap="round"/>
<path d="M21.75 9.66699L19.1412 11.842C16.9227 13.6907 15.8123 14.6151 14.5 14.6151C13.7146 14.6151 13.0029 14.284 12.0833 13.6243M7.25 9.66699L8.3375 10.5732L9.425 11.4795" stroke="#221F1F" stroke-width="2" stroke-linecap="round"/>
</svg>
