<svg width="29" height="29" viewBox="0 0 29 29" fill="none" xmlns="http://www.w3.org/2000/svg">
<path d="M25.375 12.965V19.7861C25.3747 21.0282 24.951 22.2332 24.1738 23.2021C23.3967 24.1711 22.3124 24.8462 21.0999 25.116C16.7523 26.0827 12.2477 26.0827 7.90129 25.116C6.6888 24.8465 5.60441 24.1716 4.82701 23.2029C4.0496 22.2342 3.62562 21.0294 3.625 19.7873V12.965C3.64703 11.3495 4.20804 9.7877 5.21897 8.52742C6.22991 7.26714 7.63285 6.38065 9.20508 6.00866L9.41775 5.96033L9.61954 5.91683C12.8356 5.21718 16.1644 5.21718 19.3805 5.91683L19.5822 5.96154L19.7949 6.00987C21.3362 6.375 22.7155 7.23485 23.722 8.45795M21.1458 18.7288V20.5413" stroke="#221F1F" stroke-width="2" stroke-linecap="round"/>
<path d="M19.2838 5.43734C19.141 4.59246 18.7035 3.82549 18.049 3.27249C17.3945 2.71949 16.5652 2.41623 15.7083 2.4165H13.2917C12.4348 2.41623 11.6055 2.71949 10.951 3.27249C10.2965 3.82549 9.85902 4.59246 9.71621 5.43734M3.625 16.9165C5.55819 17.7752 7.58617 18.4023 9.66667 18.7846M25.375 16.9165C21.9515 18.4385 18.2466 19.2248 14.5 19.2244M12.0833 15.7082H16.9167" stroke="#221F1F" stroke-width="2" stroke-linecap="round"/>
</svg>
